<svg xmlns="http://www.w3.org/2000/svg" viewBox="0 0 800 450" width="800" height="450">
  <rect width="800" height="450" fill="#0A0515"/>
  <!-- Dashboard chrome -->
  <rect x="20" y="15" width="760" height="420" rx="8" fill="#130929" stroke="#7114E2" stroke-width="1" stroke-opacity="0.3"/>
  <!-- Top bar -->
  <rect x="20" y="15" width="760" height="35" rx="8" fill="#130929"/>
  <rect x="20" y="42" width="760" height="8" fill="#130929"/>
  <circle cx="42" cy="32" r="5" fill="#7114E2" fill-opacity="0.4"/>
  <circle cx="58" cy="32" r="5" fill="#E5DAFB" fill-opacity="0.15"/>
  <circle cx="74" cy="32" r="5" fill="#E5DAFB" fill-opacity="0.15"/>
  <text x="400" y="37" text-anchor="middle" font-family="Poppins, sans-serif" font-size="11" fill="#E5DAFB" fill-opacity="0.6">Staircasing Intelligence Dashboard</text>
  <line x1="20" y1="50" x2="780" y2="50" stroke="#7114E2" stroke-width="0.5" stroke-opacity="0.3"/>
  <!-- Large metric -->
  <rect x="40" y="65" width="280" height="130" rx="6" fill="#0A0515" stroke="#7114E2" stroke-width="1" stroke-opacity="0.4"/>
  <text x="60" y="95" font-family="Poppins, sans-serif" font-size="10" fill="#E5DAFB" fill-opacity="0.5" letter-spacing="1">CAPITAL FORECAST</text>
  <text x="60" y="145" font-family="Poppins, sans-serif" font-size="42" fill="#E5DAFB" font-weight="700">£12.4M</text>
  <text x="60" y="170" font-family="Poppins, sans-serif" font-size="11" fill="#7114E2">Projected staircasing receipts (12 mo)</text>
  <text x="60" y="185" font-family="Poppins, sans-serif" font-size="10" fill="#22c55e" fill-opacity="0.8">+18% vs prior year</text>
  <!-- Secondary metrics -->
  <rect x="340" y="65" width="140" height="60" rx="6" fill="#0A0515" stroke="#7114E2" stroke-width="1" stroke-opacity="0.4"/>
  <text x="360" y="85" font-family="Poppins, sans-serif" font-size="9" fill="#E5DAFB" fill-opacity="0.5">ACTIVE CASES</text>
  <text x="360" y="112" font-family="Poppins, sans-serif" font-size="24" fill="#E5DAFB" font-weight="600">47</text>
  <rect x="500" y="65" width="140" height="60" rx="6" fill="#0A0515" stroke="#7114E2" stroke-width="1" stroke-opacity="0.4"/>
  <text x="520" y="85" font-family="Poppins, sans-serif" font-size="9" fill="#E5DAFB" fill-opacity="0.5">AVG TRANCHE</text>
  <text x="520" y="112" font-family="Poppins, sans-serif" font-size="24" fill="#E5DAFB" font-weight="600">15%</text>
  <rect x="660" y="65" width="100" height="60" rx="6" fill="#0A0515" stroke="#7114E2" stroke-width="1" stroke-opacity="0.4"/>
  <text x="680" y="85" font-family="Poppins, sans-serif" font-size="9" fill="#E5DAFB" fill-opacity="0.5">FULL STAIRCASE</text>
  <text x="680" y="112" font-family="Poppins, sans-serif" font-size="24" fill="#E5DAFB" font-weight="600">12</text>
  <!-- Segmentation grid: Readiness categories -->
  <rect x="340" y="135" width="420" height="60" rx="6" fill="#0A0515" stroke="#7114E2" stroke-width="1" stroke-opacity="0.4"/>
  <text x="360" y="155" font-family="Poppins, sans-serif" font-size="9" fill="#E5DAFB" fill-opacity="0.5" letter-spacing="1">READINESS SEGMENTATION</text>
  <!-- Segment bars -->
  <rect x="360" y="165" width="80" height="18" rx="3" fill="#7114E2" fill-opacity="0.6"/>
  <text x="400" y="178" text-anchor="middle" font-family="Poppins, sans-serif" font-size="8" fill="#E5DAFB">High (34)</text>
  <rect x="448" y="165" width="120" height="18" rx="3" fill="#7114E2" fill-opacity="0.35"/>
  <text x="508" y="178" text-anchor="middle" font-family="Poppins, sans-serif" font-size="8" fill="#E5DAFB">Medium (89)</text>
  <rect x="576" y="165" width="160" height="18" rx="3" fill="#7114E2" fill-opacity="0.15"/>
  <text x="656" y="178" text-anchor="middle" font-family="Poppins, sans-serif" font-size="8" fill="#E5DAFB">Low (142)</text>
  <!-- Grid / Heatmap area -->
  <rect x="40" y="210" width="720" height="210" rx="6" fill="#0A0515" stroke="#7114E2" stroke-width="1" stroke-opacity="0.4"/>
  <text x="60" y="235" font-family="Poppins, sans-serif" font-size="10" fill="#E5DAFB" fill-opacity="0.5" letter-spacing="1">PORTFOLIO HEATMAP — PROPENSITY BY DEVELOPMENT</text>
  <!-- Column headers -->
  <text x="200" y="260" text-anchor="middle" font-family="Poppins, sans-serif" font-size="8" fill="#E5DAFB" fill-opacity="0.4">0-25%</text>
  <text x="310" y="260" text-anchor="middle" font-family="Poppins, sans-serif" font-size="8" fill="#E5DAFB" fill-opacity="0.4">25-50%</text>
  <text x="420" y="260" text-anchor="middle" font-family="Poppins, sans-serif" font-size="8" fill="#E5DAFB" fill-opacity="0.4">50-75%</text>
  <text x="530" y="260" text-anchor="middle" font-family="Poppins, sans-serif" font-size="8" fill="#E5DAFB" fill-opacity="0.4">75-100%</text>
  <text x="640" y="260" text-anchor="middle" font-family="Poppins, sans-serif" font-size="8" fill="#E5DAFB" fill-opacity="0.4">Full</text>
  <!-- Row 1 -->
  <text x="110" y="285" text-anchor="middle" font-family="Poppins, sans-serif" font-size="9" fill="#E5DAFB" fill-opacity="0.6">Riverside Gate</text>
  <rect x="160" y="270" width="80" height="22" rx="3" fill="#7114E2" fill-opacity="0.5"/>
  <text x="200" y="285" text-anchor="middle" font-family="Poppins, sans-serif" font-size="9" fill="#E5DAFB">12</text>
  <rect x="270" y="270" width="80" height="22" rx="3" fill="#7114E2" fill-opacity="0.35"/>
  <text x="310" y="285" text-anchor="middle" font-family="Poppins, sans-serif" font-size="9" fill="#E5DAFB">8</text>
  <rect x="380" y="270" width="80" height="22" rx="3" fill="#7114E2" fill-opacity="0.2"/>
  <text x="420" y="285" text-anchor="middle" font-family="Poppins, sans-serif" font-size="9" fill="#E5DAFB">3</text>
  <rect x="490" y="270" width="80" height="22" rx="3" fill="#7114E2" fill-opacity="0.1"/>
  <text x="530" y="285" text-anchor="middle" font-family="Poppins, sans-serif" font-size="9" fill="#E5DAFB">1</text>
  <rect x="600" y="270" width="80" height="22" rx="3" fill="#7114E2" fill-opacity="0.05"/>
  <text x="640" y="285" text-anchor="middle" font-family="Poppins, sans-serif" font-size="9" fill="#E5DAFB" fill-opacity="0.5">0</text>
  <!-- Row 2 -->
  <text x="110" y="315" text-anchor="middle" font-family="Poppins, sans-serif" font-size="9" fill="#E5DAFB" fill-opacity="0.6">Cedar Park</text>
  <rect x="160" y="300" width="80" height="22" rx="3" fill="#7114E2" fill-opacity="0.3"/>
  <text x="200" y="315" text-anchor="middle" font-family="Poppins, sans-serif" font-size="9" fill="#E5DAFB">6</text>
  <rect x="270" y="300" width="80" height="22" rx="3" fill="#7114E2" fill-opacity="0.5"/>
  <text x="310" y="315" text-anchor="middle" font-family="Poppins, sans-serif" font-size="9" fill="#E5DAFB">14</text>
  <rect x="380" y="300" width="80" height="22" rx="3" fill="#7114E2" fill-opacity="0.35"/>
  <text x="420" y="315" text-anchor="middle" font-family="Poppins, sans-serif" font-size="9" fill="#E5DAFB">7</text>
  <rect x="490" y="300" width="80" height="22" rx="3" fill="#7114E2" fill-opacity="0.15"/>
  <text x="530" y="315" text-anchor="middle" font-family="Poppins, sans-serif" font-size="9" fill="#E5DAFB">2</text>
  <rect x="600" y="300" width="80" height="22" rx="3" fill="#7114E2" fill-opacity="0.08"/>
  <text x="640" y="315" text-anchor="middle" font-family="Poppins, sans-serif" font-size="9" fill="#E5DAFB" fill-opacity="0.5">1</text>
  <!-- Row 3 -->
  <text x="110" y="345" text-anchor="middle" font-family="Poppins, sans-serif" font-size="9" fill="#E5DAFB" fill-opacity="0.6">Harbour View</text>
  <rect x="160" y="330" width="80" height="22" rx="3" fill="#7114E2" fill-opacity="0.15"/>
  <text x="200" y="345" text-anchor="middle" font-family="Poppins, sans-serif" font-size="9" fill="#E5DAFB">3</text>
  <rect x="270" y="330" width="80" height="22" rx="3" fill="#7114E2" fill-opacity="0.25"/>
  <text x="310" y="345" text-anchor="middle" font-family="Poppins, sans-serif" font-size="9" fill="#E5DAFB">5</text>
  <rect x="380" y="330" width="80" height="22" rx="3" fill="#7114E2" fill-opacity="0.5"/>
  <text x="420" y="345" text-anchor="middle" font-family="Poppins, sans-serif" font-size="9" fill="#E5DAFB">11</text>
  <rect x="490" y="330" width="80" height="22" rx="3" fill="#7114E2" fill-opacity="0.4"/>
  <text x="530" y="345" text-anchor="middle" font-family="Poppins, sans-serif" font-size="9" fill="#E5DAFB">8</text>
  <rect x="600" y="330" width="80" height="22" rx="3" fill="#7114E2" fill-opacity="0.3"/>
  <text x="640" y="345" text-anchor="middle" font-family="Poppins, sans-serif" font-size="9" fill="#E5DAFB">4</text>
  <!-- Row 4 -->
  <text x="110" y="375" text-anchor="middle" font-family="Poppins, sans-serif" font-size="9" fill="#E5DAFB" fill-opacity="0.6">Kings Quarter</text>
  <rect x="160" y="360" width="80" height="22" rx="3" fill="#7114E2" fill-opacity="0.6"/>
  <text x="200" y="375" text-anchor="middle" font-family="Poppins, sans-serif" font-size="9" fill="#E5DAFB">18</text>
  <rect x="270" y="360" width="80" height="22" rx="3" fill="#7114E2" fill-opacity="0.4"/>
  <text x="310" y="375" text-anchor="middle" font-family="Poppins, sans-serif" font-size="9" fill="#E5DAFB">10</text>
  <rect x="380" y="360" width="80" height="22" rx="3" fill="#7114E2" fill-opacity="0.15"/>
  <text x="420" y="375" text-anchor="middle" font-family="Poppins, sans-serif" font-size="9" fill="#E5DAFB">2</text>
  <rect x="490" y="360" width="80" height="22" rx="3" fill="#7114E2" fill-opacity="0.08"/>
  <text x="530" y="375" text-anchor="middle" font-family="Poppins, sans-serif" font-size="9" fill="#E5DAFB" fill-opacity="0.5">0</text>
  <rect x="600" y="360" width="80" height="22" rx="3" fill="#7114E2" fill-opacity="0.05"/>
  <text x="640" y="375" text-anchor="middle" font-family="Poppins, sans-serif" font-size="9" fill="#E5DAFB" fill-opacity="0.5">0</text>
  <!-- Bottom pipeline mini -->
  <rect x="40" y="395" width="720" height="20" rx="4" fill="#0A0515"/>
  <rect x="40" y="395" width="200" height="20" rx="4" fill="#7114E2" fill-opacity="0.15"/>
  <rect x="40" y="395" width="120" height="20" rx="4" fill="#7114E2" fill-opacity="0.25"/>
  <rect x="40" y="395" width="60" height="20" rx="4" fill="#7114E2" fill-opacity="0.4"/>
  <text x="400" y="409" text-anchor="middle" font-family="Poppins, sans-serif" font-size="8" fill="#E5DAFB" fill-opacity="0.4">Pipeline: Enquiry → Valuation → Legal → Completed</text>
</svg>
